# xmcd
#
# Track frame offsets: 
#        150
#        12769
#        35524
#        45025
#        58780
#        72944
#        90342
#        102609
#        114410
#        128075
#        138945
#        156874
#        172550
#        200473
#
# Disc length: 2970 seconds
#
# Revision: 0
# Processed by: cddbd v1.5.2PL0 Copyright (c) Steve Scherf et al.
# Submitted via: ExactAudioCopyFreeDBPlugin 1.0
#
DISCID=a90b980e
DTITLE=Various Artist - Blues Platinum Collection [CD2)
DYEAR=2007
DGENRE=Blues
TTITLE0=Eric Clapton - Freight Loader
TTITLE1=B.B. King - The Thrill Is Gone
TTITLE2=Canned Heat - Big Road Blues
TTITLE3=Lightnin' Hopkins - Mojo Hand
TTITLE4=Slim Memphis - Slim's Blues
TTITLE5=John Lee Hooker - Blues Before Sunrise
TTITLE6=Little Walter - My Babe
TTITLE7=The Yardbirds - I'm A Man
TTITLE8=T-Bone Walker - I'm Waiting For Your Call
TTITLE9=Robert Johnson - From Four Till Late
TTITLE10=The Animals with Sonny Boy Williamson - Pontiac Blues
TTITLE11=Albert King - Born Under A Bad Sign
TTITLE12=Champion Jack Dupree - Hard Feeling
TTITLE13=Luther Allison - Sweet Home Chicago
EXTD=
EXTT0=
EXTT1=
EXTT2=
EXTT3=
EXTT4=
EXTT5=
EXTT6=
EXTT7=
EXTT8=
EXTT9=
EXTT10=
EXTT11=
EXTT12=
EXTT13=
PLAYORDER=
